# File created by Blade
# Date/Time:  Thu Jan 22 16:36:26 2015
# Frame Rate: 120.000 fps
#------------------------------------------------------
:FULLY-SPECIFIED
:DEGREES
1328
root 3.120636 3.427018 -10.346511 -62.087690 4.413493 -2.060830
RightUpLeg -37.722266 -10.344134 -3.071318
RightLeg 26.735472 -0.000000 -0.000000
RightFoot -3.968313 -23.805367 32.190974
RightToeBase 7.151867 -0.000000 -0.000000
LeftUpLeg -45.650752 -8.398386 11.850464
LeftLeg 39.583128 -0.000000 -0.000000
LeftFoot 24.282000 18.690873 -32.791689
LeftToeBase 3.299244 -0.000000 -0.000000
Spine 63.882630 -3.384254 -4.088044
RightShoulder -1.354191 -29.917743 -12.754333
RightArm 6.565917 -6.126666 69.957924
RightForeArm 3.402003 -0.000000 73.793128
RightHand 15.047547 -0.000000 -42.627288
RightHandThumb1 -24.326973 -0.000000 -32.862282
LeftShoulder -30.616568 42.757309 -2.613386
LeftArm 45.082596 10.188262 -63.150841
LeftForeArm 40.413822 -0.000000 88.225593
LeftHand -28.007462 -0.000000 27.380911
LeftHandThumb1 -26.253704 0.000000 33.147579
Head 6.199882 7.156428 0.950286
1329
root 3.121496 3.429533 -10.344196 -62.031026 4.490561 -2.031238
RightUpLeg -38.692514 -10.432737 -3.107266
RightLeg 28.418233 -0.000000 -0.000000
RightFoot -3.544743 -22.896752 30.664219
RightToeBase 6.945193 -0.000000 -0.000000
LeftUpLeg -45.647154 -8.311581 11.726538
LeftLeg 39.538034 -0.000000 -0.000000
LeftFoot 24.494987 18.628822 -33.211199
LeftToeBase 3.311036 -0.000000 -0.000000
Spine 63.875425 -3.535437 -4.014706
RightShoulder -1.639388 -30.370367 -12.749644
RightArm 6.124942 -6.125001 69.966794
RightForeArm 2.741147 0.000000 73.235422
RightHand 15.058053 -0.000000 -42.399358
RightHandThumb1 -24.326973 -0.000000 -32.862282
LeftShoulder -31.052359 43.016477 -2.994273
LeftArm 44.007751 10.494911 -62.961076
LeftForeArm 41.168074 -0.000000 87.150308
LeftHand -27.986242 -0.000000 27.699831
LeftHandThumb1 -26.253704 0.000000 33.147579
Head 6.201796 7.260440 0.585717
1330
root 3.119692 3.433016 -10.347092 -61.988112 4.520220 -1.994755
RightUpLeg -39.612554 -10.414029 -3.126083
RightLeg 29.949473 -0.000000 -0.000000
RightFoot -3.092622 -22.213888 29.517535
RightToeBase 7.153061 -0.000000 -0.000000
LeftUpLeg -45.621203 -8.222691 11.652665
LeftLeg 39.455139 -0.000000 -0.000000
LeftFoot 24.592309 18.694631 -33.430838
LeftToeBase 3.599916 -0.000000 -0.000000
Spine 63.914586 -3.677724 -3.881924
RightShoulder -1.920087 -30.743940 -12.770773
RightArm 5.703889 -6.139373 69.971659
RightForeArm 2.362282 -0.000000 72.715484
RightHand 15.072041 0.000000 -42.234354
RightHandThumb1 -24.326973 -0.000000 -32.862282
LeftShoulder -31.473042 43.281751 -3.412645
LeftArm 42.991454 10.831810 -62.730890
LeftForeArm 41.884047 0.000000 86.132160
LeftHand -28.114159 0.000000 28.126913
LeftHandThumb1 -26.253704 0.000000 33.147579
Head 6.151316 7.378211 0.203972
1331
root 3.125929 3.436493 -10.348896 -61.959619 4.557136 -1.891154
RightUpLeg -40.571583 -10.442411 -3.132938
RightLeg 31.475353 -0.000000 -0.000000
RightFoot -2.703908 -21.683852 28.705955
RightToeBase 7.489750 -0.000000 -0.000000
LeftUpLeg -45.563568 -8.131748 11.534370
LeftLeg 39.388125 -0.000000 -0.000000
LeftFoot 24.600987 18.702577 -33.321849
LeftToeBase 3.626560 -0.000000 -0.000000
Spine 63.970660 -3.806042 -3.826255
RightShoulder -2.141839 -31.079346 -12.854741
RightArm 5.328409 -6.269846 69.930365
RightForeArm 1.886450 -0.000000 72.155037
RightHand 15.007280 0.000000 -41.824770
RightHandThumb1 -24.326973 -0.000000 -32.862282
LeftShoulder -31.975025 43.551767 -3.907391
LeftArm 42.003095 11.220874 -62.506622
LeftForeArm 42.490570 0.000000 85.165005
LeftHand -28.239611 -0.000000 28.320658
LeftHandThumb1 -26.253704 0.000000 33.147579
Head 6.114460 7.580520 -0.190048
1332
root 3.124762 3.439960 -10.355249 -61.952318 4.583337 -1.856793
RightUpLeg -41.546262 -10.645092 -2.994111
RightLeg 32.950810 -0.000000 -0.000000
RightFoot -2.549485 -21.219520 28.893347
RightToeBase 7.651818 -0.000000 -0.000000
LeftUpLeg -45.508213 -8.103131 11.477788
LeftLeg 39.296611 -0.000000 -0.000000
LeftFoot 24.641740 18.744448 -33.047019
LeftToeBase 3.545707 -0.000000 -0.000000
Spine 64.068773 -3.950199 -3.695474
RightShoulder -2.414757 -31.339850 -12.893439
RightArm 4.970902 -6.416622 69.816154
RightForeArm 1.169557 -0.000000 71.510308
RightHand 15.212165 -0.000000 -41.759886
RightHandThumb1 -24.326973 -0.000000 -32.862282
LeftShoulder -32.393316 43.786216 -4.302564
LeftArm 41.004600 11.661293 -62.325824
LeftForeArm 43.212515 -0.000000 84.208261
LeftHand -28.255637 -0.000000 28.465007
LeftHandThumb1 -26.253704 0.000000 33.147579
Head 6.032953 7.712100 -0.510967
1333
root 3.131686 3.440542 -10.361522 -61.908511 4.610558 -1.766055
RightUpLeg -42.560514 -10.861419 -2.837916
RightLeg 34.368341 -0.000000 -0.000000
RightFoot -2.439946 -20.853966 29.085183
RightToeBase 7.455430 -0.000000 -0.000000
LeftUpLeg -45.469326 -8.025810 11.369189
LeftLeg 39.187926 -0.000000 -0.000000
LeftFoot 24.563362 18.963377 -32.747707
LeftToeBase 3.766014 -0.000000 -0.000000
Spine 64.106701 -4.080343 -3.588512
RightShoulder -2.651132 -31.595452 -12.950352
RightArm 4.644572 -6.549746 69.700189
RightForeArm 0.816309 0.000000 70.935369
RightHand 15.215783 -0.000000 -41.525698
RightHandThumb1 -24.326973 -0.000000 -32.862282
LeftShoulder -32.897567 44.125311 -4.833913
LeftArm 40.142744 12.108955 -62.141887
LeftForeArm 43.764700 0.000000 83.233828
LeftHand -28.251062 -0.000000 29.065053
LeftHandThumb1 -26.253704 0.000000 33.147579
Head 6.024370 7.866659 -0.834836
